<svg xmlns="http://www.w3.org/2000/svg" width="100" height="25" fill="none" id="svg871843435_677"><path d="M2.45 23.188h21.376V1.813H2.45v21.375Zm17.262-12.745h-4.517V5.927h4.517v4.516ZM6.564 5.927h4.52v8.63h8.628v4.516H6.564V5.927Zm31.181-4.114A10.687 10.687 0 1 0 48.433 12.5 10.7 10.7 0 0 0 37.744 1.812Zm0 17.26a6.573 6.573 0 1 1 6.573-6.573 6.584 6.584 0 0 1-6.573 6.573Zm48.932-17.26A10.687 10.687 0 1 0 97.364 12.5 10.7 10.7 0 0 0 86.677 1.812Zm0 17.26A6.574 6.574 0 1 1 93.25 12.5a6.58 6.58 0 0 1-6.573 6.573ZM62.211 1.813A10.687 10.687 0 1 0 72.898 12.5 10.7 10.7 0 0 0 62.211 1.812Zm0 17.26a6.574 6.574 0 1 1 6.24-8.63h-6.24v4.114h6.24a6.583 6.583 0 0 1-6.24 4.516Z" fill="#DAC5A7"/></svg>