<svg xmlns="http://www.w3.org/2000/svg" width="53" height="35" fill="none" id="svg2133325238_1714"><g clip-path="url(#svg2133325238_1714_a)" fill="#DAC5A7"><path d="M49.537 1.094c0 .604.49 1.093 1.094 1.093h1.093a1.094 1.094 0 1 0 0-2.187h-1.093c-.604 0-1.094.49-1.094 1.094ZM17.818 35h5.313l-1.546-1.547c-.41-.41-.967-.64-1.547-.64h-2.22c-8.457 0-15.312-6.856-15.312-15.313S9.36 2.188 17.818 2.187h17.5c8.457 0 15.313 6.856 15.313 15.313s-6.856 15.313-15.313 15.313h-6.546c-.87 0-1.705-.346-2.32-.962l-1.813-1.812a5.469 5.469 0 0 0-3.867-1.602h-2.954c-6.04 0-10.937-4.896-10.937-10.937 0-6.04 4.896-10.938 10.937-10.938h17.5c6.04 0 10.938 4.897 10.938 10.938 0 6.04-4.897 10.938-10.938 10.938h-4.203c-.87 0-1.705-.346-2.32-.961l-1.813-1.813a5.469 5.469 0 0 0-3.867-1.602h-5.297a6.563 6.563 0 0 1 0-13.125h17.5a6.563 6.563 0 0 1 .133 13.124l-.001.002h-1.6a3.283 3.283 0 0 1-2.321-.961l-1.812-1.813a5.469 5.469 0 0 0-3.094-1.547l-.055-.055h-8.75a2.188 2.188 0 0 1 0-4.375h17.5a2.188 2.188 0 0 1 0 4.376h-4.375l1.547 1.546c.41.41.967.641 1.547.641h1.281a4.375 4.375 0 0 0 0-8.75h-17.5a4.375 4.375 0 0 0 0 8.75h8.032c.87 0 1.705.346 2.32.961l1.812 1.812a5.468 5.468 0 0 0 3.867 1.602h2.016v-.017a8.75 8.75 0 0 0-.547-17.483h-17.5a8.75 8.75 0 0 0 0 17.5h5.297c.87 0 1.705.346 2.32.961l1.813 1.812a5.469 5.469 0 0 0 3.867 1.602h4.203c7.249 0 13.125-5.876 13.125-13.125S42.567 4.375 35.318 4.375h-17.5c-7.249 0-13.125 5.876-13.125 13.125s5.876 13.125 13.125 13.125h2.954c.87 0 1.705.346 2.32.961l1.813 1.812A5.469 5.469 0 0 0 28.772 35h6.546c9.665 0 17.5-7.835 17.5-17.5S44.983 0 35.318 0h-17.5C8.153 0 .318 7.835.318 17.5S8.153 35 17.818 35Z"/></g><defs><clipPath id="svg2133325238_1714_a"><path fill="#fff" transform="translate(.318)" d="M0 0h52.5v35H0z"/></clipPath></defs></svg>