<svg xmlns="http://www.w3.org/2000/svg" width="79" height="31" fill="none" id="svg835779564_1051"><g clip-path="url(#svg835779564_1051_a)" fill="#DAC5A7"><path d="M18.909.5c-3.046 0-5.968 1.21-8.122 3.364l-7.03 7.03a11.485 11.485 0 0 0-3.363 8.12c0 6.344 5.142 11.486 11.485 11.486 3.046 0 5.968-1.21 8.121-3.364l4.863-4.862L39.03 8.107a5.485 5.485 0 0 1 9.095 2.177l4.471-4.471A11.477 11.477 0 0 0 42.91.5c-3.047 0-5.968 1.21-8.122 3.364l-19.03 19.03a5.485 5.485 0 1 1-7.756-7.758l7.029-7.03a5.485 5.485 0 0 1 9.095 2.178l4.471-4.47A11.477 11.477 0 0 0 18.91.5Z"/><path d="M39.758 22.893a5.485 5.485 0 0 1-9.095-2.176l-4.47 4.47a11.477 11.477 0 0 0 9.686 5.313c3.046 0 5.968-1.21 8.122-3.364L63.03 8.106a5.485 5.485 0 0 1 7.757 7.758l-7.03 7.03a5.485 5.485 0 0 1-9.094-2.178l-4.471 4.471a11.476 11.476 0 0 0 9.687 5.313c3.046 0 5.968-1.21 8.122-3.364l7.029-7.03a11.485 11.485 0 0 0 3.364-8.12C78.394 5.641 73.252.5 66.909.5c-3.047 0-5.968 1.21-8.122 3.364l-19.03 19.03Z"/></g><defs><clipPath id="svg835779564_1051_a"><path fill="#fff" transform="translate(.394 .5)" d="M0 0h78v30H0z"/></clipPath></defs></svg>