<svg xmlns="http://www.w3.org/2000/svg" width="153" height="19" fill="none" id="svg-1262485426_3863"><path d="M76.663 16.374h-5.12V2.686h5.12v13.688Zm-4.62-.5h4.12V3.186h-4.12v12.688Zm11.744.5H78.77V2.686h10.482a6.288 6.288 0 0 1 4.214 1.188 4.608 4.608 0 0 1 1.479 3.817 4.863 4.863 0 0 1-1.09 3.375c-.916 1.052-2.442 1.594-4.534 1.613-.527.014-4.476 0-5.531 0l-.003 3.695Zm-4.52-.5h4.02v-3.7h.25c.052 0 5.179.016 5.772 0 1.949-.017 3.35-.5 4.169-1.443a4.391 4.391 0 0 0 .96-3.041 4.145 4.145 0 0 0-1.3-3.433 5.827 5.827 0 0 0-3.893-1.072H79.27l-.003 12.689Zm8.923-6.27h-4.937V5.878h4.97a2.11 2.11 0 0 1 1.9.727 2 2 0 0 1 .282 1.153c.018.375-.063.748-.235 1.082a2.165 2.165 0 0 1-1.98.76v.004Zm-4.437-.5h4.437c.82 0 1.328-.171 1.553-.523.124-.256.18-.54.163-.823a1.552 1.552 0 0 0-.186-.858l-.006-.009c-.238-.35-.711-.513-1.491-.513h-4.47v2.726Zm20.317 7.472c-4.49 0-7.17-1.115-8.191-3.408a5.935 5.935 0 0 1-.338-1.374l-.044-.288h5.342l.035.21c.041.213.132.414.264.586.211.255.915.683 3.251.683 2.808 0 2.808-.493 2.808-.758 0-.447-.325-.6-2.615-.844l-.435-.041c-.862-.081-1.952-.184-2.45-.227-4.2-.38-6.075-1.685-6.075-4.23 0-2.673 3.19-4.4 8.13-4.4 4.029 0 6.625 1.062 7.714 3.159a4.87 4.87 0 0 1 .513 1.562l.035.281h-5.348l-.022-.226a.852.852 0 0 0-.216-.474c-.2-.268-.832-.711-2.794-.711-2.409 0-2.741.308-2.741.64 0 .443.761.6 3.2.861 1.017.083 2.652.251 3.212.319 3.521.382 5.092 1.655 5.092 4.129.001 2.075-1.444 4.551-8.327 4.551Zm-7.99-4.57c.05.33.137.653.258.964.93 2.089 3.46 3.106 7.732 3.106 3.572 0 7.831-.7 7.831-4.051 0-2.193-1.39-3.279-4.649-3.632-.56-.068-2.185-.235-3.2-.319-2.6-.282-3.657-.432-3.657-1.358 0-.958 1.139-1.14 3.241-1.14 1.661 0 2.734.3 3.189.905.124.149.218.32.276.506h4.334a4.496 4.496 0 0 0-.41-1.111c-1-1.919-3.443-2.891-7.271-2.891-4.635 0-7.63 1.531-7.63 3.9 0 2.26 1.68 3.376 5.619 3.732.5.043 1.589.146 2.453.228l.438.041c2.127.224 3.065.364 3.065 1.341 0 1.052-1.213 1.258-3.308 1.258-1.938 0-3.162-.291-3.635-.864a1.845 1.845 0 0 1-.324-.615h-4.351Zm25.817 4.553c-5.22 0-8.1-2.111-8.1-5.945V2.686h5.052v7.928c0 1.315 1.177 2.069 3.228 2.069 1.96 0 3.177-.787 3.177-2.052V2.686h5v8.348c.005 3.511-3.044 5.525-8.36 5.525h.003Zm-7.6-13.373v7.428c0 4.738 4.758 5.445 7.6 5.445 2.938 0 7.865-.653 7.865-5.025V3.186h-4v7.445c0 1.55-1.444 2.552-3.677 2.552-2.334 0-3.728-.96-3.728-2.569V3.186h-4.06Zm37.145 13.188h-4.768v-6.18l-2.704 6.18h-4.159l-2.676-6.168v6.168h-4.785V2.686h6.294l3.27 7.547 3.428-7.547h6.106l-.006 13.688Zm-4.268-.5h3.768V3.186h-5.282l-3.762 8.279-3.586-8.279h-5.466v12.688h3.785V7.8l3.5 8.077h3.5l3.537-8.065.006 8.062ZM7.024 2.936H2.47v13.188h12.584v-3.511h-8.03V2.936Zm17.222-.3c-5.813 0-8.87 2.755-8.87 6.8 0 4.57 3.209 6.888 8.87 6.888 6.232 0 8.853-2.688 8.853-6.888 0-4.265-2.957-6.802-8.853-6.802v.002Zm-.017 3.427c.395-.002.79.021 1.184.069l-5.091 5.091a4.042 4.042 0 0 1-.344-1.732c0-2.069 1.042-3.43 4.25-3.43v.002Zm.017 6.888a9.457 9.457 0 0 1-1.141-.064l5.1-5.1a3.97 3.97 0 0 1 .325 1.7c0 2.013-.96 3.462-4.284 3.462v.002Zm17.876-1.8h4.687a2.14 2.14 0 0 1-.42.89 4.855 4.855 0 0 1-3.461 1.075 4.41 4.41 0 0 1-3.477-1.159 3.733 3.733 0 0 1-.64-2.369 3.647 3.647 0 0 1 .69-2.469c.655-.74 1.764-1.059 3.394-1.059a4.626 4.626 0 0 1 2.94.756 1.8 1.8 0 0 1 .588.84h4.347a4.48 4.48 0 0 0-.387-1.579C49.342 3.96 46.922 2.7 42.807 2.7c-3.58 0-5.981 1.092-7.308 2.739a6.569 6.569 0 0 0-1.277 4.116 6.932 6.932 0 0 0 1.248 4.235c1.31 1.7 3.646 2.536 6.452 2.536a8.062 8.062 0 0 0 5.24-1.478l.119 1.276h3.61V8.312h-8.77v2.839ZM61.14 2.633c-5.812 0-8.87 2.755-8.87 6.8 0 4.57 3.208 6.888 8.87 6.888 6.233 0 8.854-2.688 8.854-6.888 0-4.262-2.957-6.799-8.854-6.799v-.001Zm-.016 3.427c.385-.001.77.02 1.153.066l-5.07 5.074a4.056 4.056 0 0 1-.333-1.709c-.004-2.069 1.042-3.43 4.25-3.43V6.06Zm.016 6.888a9.429 9.429 0 0 1-1.171-.068l5.117-5.118a3.96 3.96 0 0 1 .337 1.727c.002 2.011-.954 3.46-4.283 3.46v-.001Z" fill="#DAC5A7"/></svg>