<svg xmlns="http://www.w3.org/2000/svg" width="30" height="20" viewBox="0 0 30 20" fill="none" id="svg1758212889_2465">
<g clip-path="url(#svg1758212889_2465_clip0_1331_3790)">
<path d="M28.125 0.624998C28.125 0.970178 28.4048 1.25 28.75 1.25H29.375C29.7202 1.25 30 0.970178 30 0.624998C30 0.279822 29.7202 0 29.375 0H28.75C28.4048 0 28.125 0.279822 28.125 0.624998Z" fill="#DAC5A7"/>
<path d="M10 20H13.0361L12.1523 19.1161C11.9179 18.8817 11.5999 18.75 11.2684 18.75H10C5.1675 18.75 1.25 14.8325 1.25 10C1.25 5.1675 5.1675 1.25001 10 1.25H20C24.8325 1.25 28.75 5.1675 28.75 10C28.75 14.8325 24.8325 18.75 20 18.75H16.2592C15.7619 18.75 15.285 18.5525 14.9333 18.2008L13.8979 17.1653C13.3118 16.5793 12.5169 16.25 11.6881 16.25H10C6.5482 16.25 3.75 13.4518 3.75 10C3.75 6.5482 6.5482 3.75 10 3.75H20C23.4518 3.75 26.25 6.5482 26.25 10C26.25 13.4518 23.4518 16.25 20 16.25H17.598C17.1007 16.25 16.6238 16.0525 16.2722 15.7008L15.2367 14.6653C14.6506 14.0793 13.8558 13.75 13.0269 13.75H10C7.92895 13.75 6.25 12.071 6.25 10C6.25 7.92895 7.92895 6.25 10 6.25H20C22.0711 6.25 23.75 7.92895 23.75 10C23.75 12.0458 22.1117 13.709 20.0756 13.7493L20.0752 13.75H19.1605C18.6632 13.75 18.1863 13.5524 17.8347 13.2008L16.7992 12.1653C16.3183 11.6844 15.6968 11.3764 15.0314 11.2814L15 11.25H10C9.30965 11.25 8.75 10.6903 8.75 10C8.75 9.30965 9.30965 8.75 10 8.75H20C20.6903 8.75 21.25 9.30965 21.25 10C21.25 10.6903 20.6903 11.25 20 11.25H17.5L18.3839 12.1339C18.6183 12.3683 18.9363 12.5 19.2677 12.5H20C21.3807 12.5 22.5 11.3807 22.5 10C22.5 8.6193 21.3807 7.5 20 7.5H10C8.6193 7.5 7.5 8.6193 7.5 10C7.5 11.3807 8.6193 12.5 10 12.5H14.5894C15.0868 12.5 15.5637 12.6976 15.9153 13.0492L16.9508 14.0847C17.5369 14.6707 18.3317 15 19.1605 15H20.3125V14.9904C22.9284 14.8291 25 12.6565 25 10C25 7.2386 22.7614 5 20 5H10C7.2386 5 5 7.2386 5 10C5 12.7614 7.2386 15 10 15H13.0269C13.5243 15 14.0012 15.1976 14.3528 15.5492L15.3883 16.5847C15.9744 17.1707 16.7692 17.5 17.598 17.5H20C24.1422 17.5 27.5 14.1421 27.5 10C27.5 5.85785 24.1422 2.5 20 2.5H10C5.85785 2.5 2.5 5.85785 2.5 10C2.5 14.1421 5.85785 17.5 10 17.5H11.6881C12.1854 17.5 12.6623 17.6975 13.014 18.0492L14.0495 19.0847C14.6356 19.6707 15.4304 20 16.2592 20H20C25.5229 20 30 15.5229 30 10C30 4.47715 25.5229 -4.82822e-07 20 0L10 2.06632e-06C4.47715 2.54914e-06 -4.82822e-07 4.47716 0 10C4.82823e-07 15.5229 4.47716 20 10 20Z" fill="#DAC5A7"/>
</g>
<defs>
<clipPath id="svg1758212889_2465_clip0_1331_3790">
<rect width="30" height="20" fill="white"/>
</clipPath>
</defs>
</svg>