<svg xmlns="http://www.w3.org/2000/svg" width="117" height="25" viewBox="0 0 117 25" fill="none" id="svg-230836560_12736">
<path d="M18.6825 11.1424C18.3667 11.4601 18.1248 11.8436 17.9742 12.2655C17.8235 12.6874 17.7677 13.1373 17.8108 13.5832L17.7958 13.5682C17.8402 14.0931 17.7693 14.6213 17.5884 15.1161C17.4075 15.6107 17.1208 16.06 16.7484 16.4325C16.3759 16.8049 15.9267 17.0916 15.4319 17.2725C14.9372 17.4534 14.409 17.5242 13.8842 17.4799L13.8992 17.4949C13.2713 17.4365 12.6407 17.5731 12.0933 17.8861C11.546 18.1992 11.1085 18.6735 10.8406 19.2443C10.5727 19.8151 10.4872 20.4546 10.5961 21.0758C10.705 21.6969 11.0027 22.2693 11.4488 22.715C11.8949 23.1606 12.4676 23.4579 13.0887 23.5661C13.71 23.6745 14.3494 23.5885 14.92 23.3201C15.4906 23.0516 15.9644 22.6137 16.277 22.0661C16.5896 21.5184 16.7257 20.8877 16.6667 20.2599L16.6825 20.2749C16.6382 19.7501 16.7089 19.2218 16.8898 18.7271C17.0707 18.2324 17.3575 17.7831 17.7299 17.4106C18.1024 17.0382 18.5517 16.7515 19.0463 16.5706C19.5411 16.3897 20.0692 16.3189 20.5942 16.3632L20.5783 16.3482C21.0912 16.3943 21.6074 16.3102 22.0792 16.1037C22.5508 15.8972 22.9628 15.575 23.2768 15.1669C23.5908 14.7588 23.7968 14.278 23.8755 13.7691C23.9542 13.2602 23.9032 12.7397 23.7272 12.2557C23.5512 11.7718 23.2559 11.3401 22.8687 11.0007C22.4814 10.6613 22.0147 10.4251 21.5119 10.3141C21.0091 10.2031 20.4863 10.2208 19.9922 10.3656C19.498 10.5104 19.0484 10.7776 18.685 11.1424H18.6825Z" fill="#DAC5A7"/>
<path d="M12.535 15.5302L12.5192 15.5152C12.9652 15.5601 13.4157 15.5054 13.8382 15.3549C14.2605 15.2044 14.6442 14.9619 14.9613 14.645C15.2784 14.3281 15.5212 13.9446 15.672 13.5224C15.8228 13.1001 15.8779 12.6497 15.8333 12.2035L15.8492 12.2185C15.8048 11.6936 15.8757 11.1654 16.0565 10.6707C16.2374 10.176 16.5242 9.72678 16.8966 9.35428C17.2691 8.98187 17.7183 8.69512 18.213 8.51428C18.7077 8.33333 19.2359 8.26256 19.7608 8.30687L19.745 8.29187C20.3729 8.35087 21.0037 8.21467 21.5513 7.90195C22.0991 7.58923 22.5369 7.11517 22.8052 6.54445C23.0736 5.97373 23.1593 5.33412 23.0508 4.71287C22.9423 4.09161 22.6448 3.51896 22.1988 3.07301C21.7529 2.62707 21.1802 2.32953 20.559 2.22102C19.9377 2.11249 19.2982 2.19825 18.7274 2.4666C18.1567 2.73494 17.6827 3.17282 17.3699 3.72049C17.0572 4.26816 16.921 4.89897 16.98 5.52687L16.965 5.51103C17.0094 6.03594 16.9387 6.56422 16.7579 7.05899C16.5771 7.55376 16.2903 8.00308 15.9179 8.37562C15.5454 8.74803 15.0961 9.03478 14.6013 9.21562C14.1065 9.39645 13.5782 9.46712 13.0533 9.4227L13.0683 9.43853C12.6222 9.39362 12.1717 9.44837 11.7493 9.59887C11.327 9.74928 10.9433 9.99178 10.6262 10.3087C10.309 10.6256 10.0662 11.0091 9.9154 11.4314C9.76465 11.8536 9.70957 12.304 9.75415 12.7502L9.73915 12.7352C9.78332 13.26 9.7124 13.7882 9.53149 14.2829C9.35049 14.7774 9.06382 15.2267 8.6914 15.5991C8.31895 15.9715 7.86975 16.2582 7.37512 16.4392C6.88049 16.6201 6.35233 16.691 5.82749 16.6469L5.84249 16.6619C5.21459 16.6029 4.58378 16.739 4.0361 17.0518C3.48844 17.3645 3.05056 17.8385 2.78222 18.4093C2.51387 18.98 2.4281 19.6196 2.53663 20.2409C2.64515 20.8621 2.94269 21.4348 3.38863 21.8807C3.83458 22.3267 4.40723 22.6242 5.02849 22.7327C5.64974 22.8412 6.28935 22.7554 6.86008 22.4871C7.43079 22.2188 7.90485 21.7809 8.21757 21.2333C8.53032 20.6855 8.66649 20.0548 8.60749 19.4269L8.62332 19.4419C8.57899 18.9169 8.64982 18.3888 8.83074 17.894C9.01157 17.3994 9.29832 16.9501 9.67074 16.5776C10.0432 16.2052 10.4925 15.9184 10.9872 15.7376C11.4819 15.5567 12.0101 15.4859 12.535 15.5302Z" fill="#DAC5A7"/>
<path d="M6.95001 13.8576C7.26586 13.5399 7.50768 13.1564 7.65821 12.7345C7.80875 12.3126 7.86428 11.8626 7.82085 11.4168L7.83667 11.4318C7.79234 10.9068 7.86314 10.3784 8.04415 9.88353C8.22516 9.3887 8.51201 8.93936 8.88468 8.56686C9.25735 8.19438 9.70676 7.90772 10.2017 7.72693C10.6966 7.54613 11.225 7.47555 11.75 7.52011L11.7342 7.50511C12.3618 7.56392 12.9924 7.42768 13.5398 7.11498C14.0873 6.80229 14.5248 6.32835 14.7931 5.7578C15.0613 5.18725 15.1469 4.54788 15.0384 3.92685C14.9299 3.30583 14.6324 2.7334 14.1867 2.28761C13.7409 1.84183 13.1684 1.5444 12.5474 1.43588C11.9264 1.32735 11.287 1.41304 10.7165 1.68122C10.1459 1.9494 9.67201 2.38705 9.35935 2.93446C9.0466 3.48188 8.91035 4.11243 8.96918 4.74011L8.95418 4.72511C8.99851 5.24999 8.92768 5.77821 8.74676 6.27291C8.56585 6.76761 8.2792 7.21687 7.90673 7.58934C7.53427 7.9618 7.08501 8.2485 6.59031 8.42936C6.09561 8.61028 5.56739 8.68111 5.04251 8.63678L5.05751 8.65178C4.54466 8.60578 4.02848 8.69003 3.55683 8.89661C3.08518 9.1032 2.67331 9.42553 2.35938 9.8337C2.04546 10.2418 1.83964 10.7226 1.76099 11.2314C1.68235 11.7404 1.73342 12.2609 1.90948 12.7447C2.08554 13.2286 2.3809 13.6602 2.76817 13.9995C3.15545 14.3389 3.62211 14.575 4.12493 14.686C4.62774 14.7969 5.15043 14.7792 5.64457 14.6344C6.13871 14.4896 6.58829 14.2224 6.95167 13.8576H6.95001Z" fill="#DAC5A7"/>
<path d="M32.7642 5.5459H35.2392V17.5901H32.7642V5.5459Z" fill="#DAC5A7"/>
<path d="M36.6408 13.4657C36.6374 12.6002 36.8909 11.753 37.3693 11.0317C37.8476 10.3103 38.5293 9.74718 39.3279 9.41359C40.1266 9.07993 41.0063 8.99084 41.8556 9.15759C42.7049 9.32434 43.4857 9.73934 44.0989 10.3502C44.7122 10.9609 45.1303 11.74 45.3005 12.5887C45.4707 13.4373 45.3851 14.3174 45.0547 15.1174C44.7243 15.9173 44.1638 16.6013 43.4444 17.0825C42.7249 17.5638 41.8789 17.8207 41.0133 17.8207C40.4388 17.8273 39.8688 17.7192 39.3364 17.5028C38.8041 17.2865 38.3203 16.9663 37.9132 16.5608C37.506 16.1553 37.1838 15.6728 36.9654 15.1413C36.7469 14.6099 36.6366 14.0403 36.6408 13.4657ZM42.9108 13.4657C42.9005 13.0926 42.7804 12.7308 42.5657 12.4256C42.3508 12.1204 42.0508 11.8853 41.7032 11.7497C41.3554 11.614 40.9755 11.5838 40.6107 11.663C40.246 11.7422 39.9127 11.927 39.6524 12.1946C39.3923 12.4621 39.2166 12.8004 39.1477 13.1673C39.0787 13.534 39.1193 13.913 39.2645 14.2568C39.4098 14.6007 39.6531 14.894 39.9641 15.1003C40.2752 15.3065 40.6402 15.4165 41.0133 15.4165C41.2689 15.4233 41.5232 15.3771 41.7601 15.2808C41.9969 15.1844 42.2113 15.0401 42.3895 14.8568C42.5678 14.6735 42.7062 14.4553 42.7958 14.2158C42.8856 13.9764 42.9248 13.721 42.9108 13.4657Z" fill="#DAC5A7"/>
<path d="M55.25 9.34084V17.1742C55.25 19.9458 53.0883 21.1175 50.8942 21.1175C50.1217 21.1753 49.3481 21.0193 48.6583 20.6665C47.9687 20.3137 47.3894 19.7778 46.9842 19.1175L49.0958 17.8967C49.2662 18.2408 49.5376 18.5248 49.8737 18.7105C50.2098 18.8962 50.5947 18.9748 50.9767 18.9358C51.2208 18.9697 51.4695 18.9482 51.7043 18.8729C51.9389 18.7977 52.1538 18.6706 52.3328 18.5012C52.5118 18.3317 52.6503 18.1242 52.7383 17.8938C52.8263 17.6636 52.8613 17.4165 52.8408 17.1708V16.4167C52.551 16.7713 52.1822 17.053 51.7638 17.2393C51.3453 17.4255 50.8892 17.5111 50.4317 17.4892C49.3432 17.4548 48.3108 16.9983 47.5529 16.2162C46.7951 15.4341 46.3713 14.3878 46.3713 13.2988C46.3713 12.2098 46.7951 11.1634 47.5529 10.3813C48.3108 9.59917 49.3432 9.14267 50.4317 9.10834C50.8892 9.08642 51.3453 9.17201 51.7638 9.35826C52.1822 9.54451 52.551 9.82626 52.8408 10.1808V9.33917L55.25 9.34084ZM52.8417 13.3C52.8583 12.9012 52.7552 12.5064 52.5456 12.1667C52.336 11.8268 52.0295 11.5576 51.6656 11.3935C51.3017 11.2293 50.897 11.1779 50.5036 11.2458C50.1102 11.3136 49.7461 11.4976 49.4581 11.7742C49.1702 12.0507 48.9716 12.407 48.8878 12.7973C48.8042 13.1877 48.8392 13.5942 48.9885 13.9644C49.1378 14.3347 49.3944 14.6518 49.7254 14.875C50.0564 15.0982 50.4467 15.2172 50.8458 15.2167C51.1059 15.2348 51.3668 15.1983 51.6119 15.1095C51.857 15.0207 52.0808 14.8814 52.2688 14.7009C52.4568 14.5203 52.6049 14.3024 52.7036 14.0611C52.8023 13.8198 52.8493 13.5606 52.8417 13.3Z" fill="#DAC5A7"/>
<path d="M56.6517 13.4657C56.6483 12.6002 56.9017 11.753 57.3801 11.0317C57.8584 10.3103 58.5401 9.74718 59.3387 9.41359C60.1374 9.07993 61.0171 8.99084 61.8664 9.15759C62.7158 9.32434 63.4965 9.73934 64.1098 10.3502C64.723 10.9609 65.1412 11.74 65.3113 12.5887C65.4815 13.4373 65.3959 14.3174 65.0655 15.1174C64.7351 15.9173 64.1747 16.6013 63.4553 17.0825C62.7358 17.5638 61.8897 17.8207 61.0242 17.8207C60.4497 17.8273 59.8795 17.7192 59.3472 17.5028C58.8149 17.2865 58.3311 16.9663 57.924 16.5608C57.5168 16.1553 57.1947 15.6728 56.9762 15.1413C56.7577 14.6099 56.6474 14.0403 56.6517 13.4657ZM62.9217 13.4657C62.9113 13.0926 62.7912 12.7308 62.5765 12.4256C62.3617 12.1204 62.0617 11.8853 61.714 11.7497C61.3663 11.614 60.9863 11.5838 60.6216 11.663C60.2568 11.7422 59.9235 11.927 59.6633 12.1946C59.4031 12.4621 59.2274 12.8004 59.1584 13.1673C59.0894 13.534 59.1301 13.913 59.2753 14.2568C59.4206 14.6007 59.6639 14.894 59.9749 15.1003C60.286 15.3065 60.6509 15.4165 61.0242 15.4165C61.2797 15.4233 61.534 15.3771 61.7708 15.2808C62.0078 15.1844 62.2221 15.0401 62.4003 14.8568C62.5786 14.6735 62.717 14.4553 62.8067 14.2158C62.8964 13.9764 62.9356 13.721 62.9217 13.4657Z" fill="#DAC5A7"/>
<path d="M66.5508 7.13002C66.5508 6.83631 66.6379 6.5492 66.8011 6.305C66.9643 6.0608 67.1963 5.87045 67.4676 5.75806C67.7389 5.64566 68.0375 5.61625 68.3256 5.67355C68.6136 5.73085 68.8783 5.87229 69.0859 6.07997C69.2936 6.28765 69.435 6.55225 69.4923 6.84031C69.5496 7.12837 69.5202 7.42695 69.4078 7.6983C69.2954 7.96965 69.1051 8.20158 68.8608 8.36477C68.6167 8.52794 68.3296 8.61502 68.0358 8.61502C67.6433 8.6111 67.2678 8.45344 66.9901 8.17575C66.7125 7.8981 66.5548 7.52265 66.5508 7.13002ZM66.8008 9.34085H69.2767V17.5909H66.7975L66.8008 9.34085Z" fill="#DAC5A7"/>
<path d="M79.9633 13.4659C79.9919 14.0111 79.9125 14.5566 79.7295 15.0711C79.5466 15.5855 79.2637 16.0586 78.8972 16.4634C78.5308 16.8681 78.0879 17.1964 77.5942 17.4294C77.1003 17.6623 76.5654 17.7954 76.02 17.8209C75.5613 17.8459 75.1029 17.7686 74.6778 17.5945C74.2527 17.4203 73.8718 17.1538 73.5625 16.8142V20.8901H71.0875V9.3409H73.5625V10.1159C73.8719 9.77656 74.253 9.51023 74.678 9.33631C75.1031 9.16231 75.5614 9.08506 76.02 9.11006C76.5655 9.13548 77.1006 9.26848 77.5945 9.50148C78.0884 9.73448 78.5313 10.0628 78.8978 10.4676C79.2643 10.8725 79.5472 11.3458 79.73 11.8604C79.9128 12.3749 79.9922 12.9206 79.9633 13.4659ZM77.4883 13.4659C77.4787 13.0798 77.3553 12.7051 77.1337 12.3887C76.9122 12.0724 76.6022 11.8284 76.2427 11.6874C75.8832 11.5463 75.49 11.5144 75.1124 11.5957C74.7348 11.677 74.3897 11.8678 74.12 12.1443C73.8503 12.4209 73.6682 12.7707 73.5965 13.1503C73.5247 13.5298 73.5665 13.922 73.7166 14.2779C73.8666 14.6338 74.1183 14.9375 74.4402 15.1511C74.762 15.3646 75.1396 15.4785 75.5258 15.4784C75.791 15.4902 76.0557 15.4458 76.3025 15.3481C76.5492 15.2506 76.7727 15.1018 76.9579 14.9118C77.1432 14.7217 77.2862 14.4947 77.3777 14.2456C77.4691 13.9964 77.5068 13.7306 77.4883 13.4659Z" fill="#DAC5A7"/>
<path d="M87.6008 15.1152C87.6008 17.0127 85.9517 17.821 84.17 17.821C83.45 17.8862 82.7272 17.734 82.0948 17.384C81.4624 17.034 80.9496 16.5023 80.6225 15.8577L82.7667 14.6369C82.8534 14.9348 83.0397 15.194 83.2945 15.3711C83.5492 15.5483 83.8575 15.6327 84.1667 15.6102C84.76 15.6102 85.0575 15.4285 85.0575 15.0994C85.0575 14.191 80.9983 14.6702 80.9983 11.816C80.9983 10.0169 82.5167 9.1102 84.2325 9.1102C84.8775 9.08979 85.5158 9.24279 86.0817 9.5532C86.6475 9.8637 87.12 10.3202 87.4492 10.8752L85.3375 12.0135C85.245 11.7975 85.0908 11.6134 84.8942 11.4843C84.6975 11.3552 84.4675 11.2869 84.2325 11.2877C83.8033 11.2877 83.5392 11.4544 83.5392 11.7494C83.5425 12.6902 87.6008 12.0627 87.6008 15.1152Z" fill="#DAC5A7"/>
<path d="M96.6417 9.34082V17.5908H94.1667V16.815C93.8808 17.1573 93.5183 17.4271 93.1083 17.6021C92.6983 17.7771 92.2533 17.8523 91.8083 17.8217C90.1417 17.8217 88.725 16.6342 88.725 14.405V9.34082H91.2V14.0425C91.1792 14.239 91.2017 14.4377 91.2658 14.6246C91.3292 14.8116 91.4333 14.9824 91.57 15.1252C91.7067 15.2679 91.8725 15.3792 92.0567 15.4512C92.24 15.5233 92.4375 15.5545 92.635 15.5425C93.5425 15.5425 94.1692 15.015 94.1692 13.8433V9.34332L96.6417 9.34082Z" fill="#DAC5A7"/>
<path d="M110.833 12.5251V17.5901H108.358V12.7393C108.358 11.9143 107.962 11.3868 107.171 11.3868C106.346 11.3868 105.883 11.9643 105.883 12.9376V17.5901H103.409V12.7393C103.409 11.9143 103.013 11.3868 102.221 11.3868C101.396 11.3868 100.934 11.9643 100.934 12.9376V17.5901H98.4592V9.34011H100.934V10.0984C101.191 9.76202 101.527 9.49519 101.913 9.32244C102.3 9.14961 102.723 9.07636 103.145 9.10927C103.568 9.08852 103.99 9.17794 104.369 9.36869C104.747 9.55936 105.07 9.84502 105.306 10.1976C105.58 9.82869 105.943 9.53536 106.362 9.34502C106.78 9.15469 107.24 9.07361 107.698 9.10927C109.593 9.11011 110.833 10.4626 110.833 12.5251Z" fill="#DAC5A7"/>
<path d="M112.927 9.29003C113.941 9.29003 114.763 8.4677 114.763 7.45337C114.763 6.439 113.941 5.6167 112.927 5.6167C111.913 5.6167 111.09 6.439 111.09 7.45337C111.09 8.4677 111.913 9.29003 112.927 9.29003Z" fill="#DAC5A7"/>
</svg>