<svg xmlns="http://www.w3.org/2000/svg" width="52" height="20" viewBox="0 0 52 20" fill="none" id="svg-1741346970_1662">
<g clip-path="url(#svg-1741346970_1662_clip0_2017_3007)">
<path d="M12.3431 0C10.3124 0 8.36487 0.8067 6.92893 2.24264L2.24264 6.92893C0.8067 8.36487 0 10.3124 0 12.3431C0 16.5719 3.42809 20 7.65687 20C9.6876 20 11.6351 19.1933 13.0711 17.7573L16.3126 14.5158C16.3126 14.5157 16.3127 14.5159 16.3126 14.5158L25.7573 5.07107C26.4431 4.38527 27.3733 4 28.3431 4C29.9669 4 31.3435 5.05827 31.8207 6.52271L34.8015 3.54197C33.4417 1.41223 31.0573 0 28.3431 0C26.3124 0 24.3649 0.8067 22.9289 2.24264L10.2427 14.9289C9.55687 15.6147 8.62673 16 7.65687 16C5.63723 16 4 14.3628 4 12.3431C4 11.3733 4.38527 10.4431 5.07107 9.75733L9.75733 5.07107C10.4431 4.38527 11.3733 4 12.3431 4C13.9669 4 15.3435 5.05832 15.8207 6.52281L18.8015 3.54205C17.4417 1.41227 15.0574 0 12.3431 0Z" fill="#DAC5A7"/>
<path d="M26.2427 14.9289C25.5569 15.6147 24.6267 16 23.6569 16C22.0333 16 20.6569 14.942 20.1795 13.4778L17.1988 16.4585C18.5587 18.5879 20.9429 20 23.6569 20C25.6876 20 27.6351 19.1933 29.0711 17.7573L41.7573 5.07107C42.4431 4.38527 43.3733 4 44.3431 4C46.3628 4 48 5.63723 48 7.65687C48 8.62673 47.6147 9.55687 46.9289 10.2427L42.2427 14.9289C41.5569 15.6147 40.6267 16 39.6569 16C38.0332 16 36.6567 14.9418 36.1793 13.4775L33.1987 16.4582C34.5585 18.5879 36.9427 20 39.6569 20C41.6876 20 43.6351 19.1933 45.0711 17.7573L49.7573 13.0711C51.1933 11.6351 52 9.6876 52 7.65687C52 3.42809 48.5719 0 44.3431 0C42.3124 0 40.3649 0.8067 38.9289 2.24264L26.2427 14.9289Z" fill="#DAC5A7"/>
</g>
<defs>
<clipPath id="svg-1741346970_1662_clip0_2017_3007">
<rect width="52" height="20" fill="white"/>
</clipPath>
</defs>
</svg>