<svg xmlns="http://www.w3.org/2000/svg" width="114" height="30" viewBox="0 0 114 30" fill="none" id="svg-1947627083_11251">
<path d="M26.1599 10.5C26.4685 10.5 26.5714 10.6114 26.5714 10.9114V17.7H30.0599C30.3599 17.7 30.4714 17.8114 30.4714 18.1114V18.7114C30.4714 19.0114 30.3599 19.1229 30.0599 19.1229H25.4657C25.1657 19.1229 25.0457 19.0114 25.0457 18.7114V10.9114C25.0457 10.6114 25.1657 10.5 25.4657 10.5H26.1599Z" fill="#DAC5A7"/>
<path d="M33.5143 13.4913C33.5143 11.5113 34.7657 10.3198 36.9429 10.3198C39.12 10.3198 40.3714 11.5113 40.3714 13.4913V16.1313C40.3714 18.1113 39.1114 19.3027 36.9429 19.3027C34.7743 19.3027 33.5143 18.1113 33.5143 16.1313V13.4913ZM38.9314 13.4913C38.9314 12.377 38.2371 11.777 36.9857 11.777C35.7343 11.777 35.0486 12.3855 35.0486 13.4913V16.1484C35.0486 17.2713 35.7343 17.8627 36.9857 17.8627C38.2371 17.8627 38.9314 17.2455 38.9314 16.1484V13.4913Z" fill="#DAC5A7"/>
<path d="M50.58 14.3999C50.9143 14.3999 50.9915 14.5114 50.9915 14.8114V16.4399C51.0005 16.8235 50.9237 17.2043 50.7665 17.5543C50.6092 17.9044 50.3757 18.2147 50.0829 18.4628C49.3558 19.0418 48.439 19.329 47.5115 19.2685C45.2915 19.2685 44.0829 18.0771 44.0829 16.0971V13.4399C44.0829 11.4856 45.3343 10.2856 47.5115 10.2856C49.2257 10.2856 50.34 10.9628 50.8115 12.3171C50.8379 12.368 50.852 12.4243 50.8528 12.4816C50.8535 12.5389 50.8409 12.5956 50.816 12.6472C50.7911 12.6988 50.7544 12.7438 50.7089 12.7788C50.6635 12.8137 50.6105 12.8376 50.5543 12.8485L49.8857 13.0799C49.5943 13.1828 49.4743 13.1228 49.3715 12.8228C49.2294 12.4567 48.9695 12.1483 48.6326 11.9465C48.2957 11.7448 47.9013 11.6609 47.5115 11.7085C46.2515 11.7085 45.5657 12.3171 45.5657 13.4228V16.1485C45.5657 17.2714 46.26 17.8628 47.5115 17.8628C48.7629 17.8628 49.5343 17.2885 49.5343 16.4485V15.8142H47.6743C47.3657 15.8142 47.2543 15.6942 47.2543 15.3942V14.8114C47.2543 14.5114 47.3657 14.3999 47.6743 14.3999H50.58Z" fill="#DAC5A7"/>
<path d="M54.5314 13.4913C54.5314 11.5113 55.7828 10.3198 57.9599 10.3198C60.1371 10.3198 61.3885 11.5113 61.3885 13.4913V16.1313C61.3885 18.1113 60.1285 19.3027 57.9599 19.3027C55.7914 19.3027 54.5314 18.1113 54.5314 16.1313V13.4913ZM59.9399 13.4913C59.9399 12.377 59.2457 11.777 58.0028 11.777C56.7599 11.777 56.0571 12.3855 56.0571 13.4913V16.1484C56.0571 17.2713 56.7514 17.8627 58.0028 17.8627C59.2542 17.8627 59.9399 17.2455 59.9399 16.1484V13.4913Z" fill="#DAC5A7"/>
<path d="M65.4258 10.7486C65.4258 10.56 65.4858 10.5 65.6744 10.5H66.0686C66.2572 10.5 66.3001 10.56 66.3001 10.7486V18.8743C66.3001 19.0629 66.3001 19.1229 66.0686 19.1229H65.6744C65.4858 19.1229 65.4258 19.0629 65.4258 18.8743V10.7486Z" fill="#DAC5A7"/>
<path d="M74.1086 10.5C74.8224 10.5 75.5069 10.7835 76.0117 11.2883C76.5164 11.793 76.8 12.4776 76.8 13.1914C76.8 13.9053 76.5164 14.5899 76.0117 15.0945C75.5069 15.5993 74.8224 15.8829 74.1086 15.8829H71.5371V18.8743C71.5371 19.0629 71.4943 19.1229 71.3143 19.1229H70.9114C70.7314 19.1229 70.6628 19.0629 70.6628 18.8743V10.7486C70.6628 10.56 70.7314 10.5 70.9114 10.5H74.1086ZM74.0314 15.0343C74.2768 15.0343 74.5198 14.9859 74.7465 14.8921C74.9732 14.7981 75.1792 14.6605 75.3527 14.487C75.5262 14.3135 75.6638 14.1075 75.7578 13.8808C75.8516 13.6541 75.9 13.4111 75.9 13.1657C75.9 12.9203 75.8516 12.6773 75.7578 12.4506C75.6638 12.224 75.5262 12.0179 75.3527 11.8444C75.1792 11.6709 74.9732 11.5333 74.7465 11.4393C74.5198 11.3455 74.2768 11.2971 74.0314 11.2971H71.46V15.0343H74.0314Z" fill="#DAC5A7"/>
<path d="M83.4944 10.3287C84.1562 10.2557 84.8238 10.3981 85.3982 10.7347C85.9724 11.0714 86.4232 11.5843 86.6829 12.1973C86.7515 12.3344 86.6829 12.4459 86.5458 12.5144L86.1686 12.6859C86.0144 12.7459 85.9543 12.7373 85.8601 12.5744C85.6658 12.1195 85.332 11.738 84.9067 11.4854C84.4814 11.2327 83.9868 11.1218 83.4944 11.1687C82.0458 11.1687 81.2572 11.743 81.2572 12.7716C81.2488 13.0859 81.3543 13.3928 81.5545 13.6353C81.7545 13.8779 82.0356 14.04 82.3458 14.0916C82.8068 14.2419 83.2848 14.3341 83.7686 14.3659C84.3543 14.3971 84.9321 14.5155 85.4829 14.7173C85.9055 14.8509 86.2689 15.1257 86.5124 15.4957C86.7558 15.8656 86.8646 16.3081 86.8201 16.7487C86.8201 18.3516 85.6544 19.3202 83.5115 19.3202C82.8086 19.4006 82.0994 19.2377 81.5021 18.8587C80.9048 18.4797 80.4553 17.9074 80.2286 17.2373C80.2135 17.2068 80.2053 17.1733 80.2046 17.1392C80.204 17.105 80.2109 17.0713 80.2248 17.0402C80.2387 17.009 80.2593 16.9814 80.2852 16.9592C80.311 16.9369 80.3414 16.9207 80.3743 16.9116L80.7515 16.7744C80.7812 16.7623 80.8131 16.7564 80.8452 16.7573C80.8772 16.7582 80.9088 16.7657 80.9378 16.7794C80.9668 16.7931 80.9927 16.8127 81.0137 16.8369C81.0348 16.8612 81.0506 16.8895 81.0601 16.9202C81.2518 17.4044 81.5928 17.8149 82.0335 18.0924C82.4743 18.3698 82.992 18.4996 83.5115 18.463C85.1315 18.463 85.9286 17.8973 85.9286 16.7487C85.9441 16.4468 85.8515 16.1493 85.6675 15.9092C85.4839 15.6691 85.2211 15.5018 84.9258 15.4373C84.4823 15.305 84.0249 15.2245 83.5629 15.1973L82.6372 15.0773C82.3475 15.0158 82.0614 14.9385 81.7801 14.8459C81.5022 14.762 81.2431 14.6252 81.0172 14.443C80.7898 14.2371 80.6106 13.9838 80.492 13.7008C80.3736 13.4179 80.3187 13.1124 80.3315 12.8059C80.3915 11.3059 81.5144 10.3287 83.4944 10.3287Z" fill="#DAC5A7"/>
<path d="M91.44 16.1914C91.476 16.7976 91.7426 17.367 92.1848 17.7833C92.6271 18.1996 93.2117 18.4314 93.8186 18.4314C94.4254 18.4314 95.01 18.1996 95.4523 17.7833C95.8946 17.367 96.1603 16.7976 96.1971 16.1914V10.7486C96.1971 10.56 96.2571 10.5 96.4457 10.5H96.84C97.0286 10.5 97.0886 10.56 97.0886 10.7486V16.1829C97.0886 18.1286 95.94 19.3029 93.8228 19.3029C91.7057 19.3029 90.5571 18.1286 90.5571 16.1829V10.7486C90.5571 10.56 90.6171 10.5 90.7971 10.5H91.2C91.38 10.5 91.44 10.56 91.44 10.7486V16.1914Z" fill="#DAC5A7"/>
<path d="M108.917 10.5C109.106 10.5 109.166 10.56 109.166 10.7486V18.8743C109.166 19.0629 109.106 19.1229 108.917 19.1229H108.557C108.377 19.1229 108.317 19.0629 108.317 18.8743V13.9286C108.317 13.209 108.366 12.4902 108.463 11.7771H108.411C108.144 12.4292 107.831 13.0621 107.477 13.6714L105.634 16.92C105.612 16.9764 105.573 17.0246 105.522 17.0583C105.471 17.0919 105.412 17.1094 105.351 17.1086H105.111C105.05 17.1089 104.99 17.0912 104.937 17.0577C104.886 17.0242 104.845 16.9764 104.82 16.92L102.951 13.6371C102.62 13.0365 102.333 12.4119 102.094 11.7686H102.043C102.13 12.4881 102.177 13.2123 102.18 13.9371V18.8743C102.18 19.0629 102.12 19.1229 101.931 19.1229H101.597C101.409 19.1229 101.349 19.0629 101.349 18.8743V10.7486C101.349 10.56 101.409 10.5 101.597 10.5H101.906C101.976 10.4935 102.047 10.5088 102.108 10.5441C102.17 10.5795 102.219 10.6329 102.249 10.6971L105.249 16.0286L108.231 10.7486C108.326 10.5686 108.377 10.5429 108.566 10.5429L108.917 10.5Z" fill="#DAC5A7"/>
<path d="M10.9114 17.8199V24.017C10.9114 24.2546 10.8171 24.4824 10.6491 24.6503C10.4812 24.8183 10.2533 24.9127 10.0157 24.9127C9.77822 24.9127 9.55039 24.8183 9.38239 24.6503C9.21439 24.4824 9.12002 24.2546 9.12002 24.017V17.8284C9.36945 18.0106 9.66842 18.1122 9.97716 18.1199C10.3137 18.1295 10.6434 18.0236 10.9114 17.8199ZM18.54 16.0284C18.3127 16.0284 18.0946 16.1188 17.9339 16.2795C17.7732 16.4402 17.6829 16.6583 17.6829 16.8856V17.9656C17.6829 18.2032 17.7772 18.431 17.9452 18.5989C18.1132 18.7669 18.341 18.8613 18.5786 18.8613C18.8162 18.8613 19.044 18.7669 19.2119 18.5989C19.3799 18.431 19.4743 18.2032 19.4743 17.9656V16.9284C19.481 16.8055 19.4611 16.6826 19.416 16.5681C19.3709 16.4536 19.3018 16.35 19.213 16.2647C19.1244 16.1793 19.0184 16.114 18.9023 16.0732C18.7862 16.0325 18.6626 16.0172 18.54 16.0284ZM7.1743 20.1684C6.86588 20.1592 6.5673 20.0577 6.31716 19.877V26.0913C6.31716 26.33 6.41198 26.5589 6.58077 26.7277C6.74955 26.8965 6.97846 26.9913 7.21716 26.9913C7.45586 26.9913 7.68477 26.8965 7.85355 26.7277C8.02234 26.5589 8.11716 26.33 8.11716 26.0913V19.9199C7.83726 20.1008 7.50701 20.1879 7.1743 20.1684ZM15.7457 14.1684C15.6296 14.1626 15.5135 14.1805 15.4045 14.221C15.2956 14.2614 15.196 14.3237 15.1117 14.4038C15.0275 14.484 14.9606 14.5805 14.9148 14.6873C14.8691 14.7942 14.8456 14.9093 14.8457 15.0256V19.7999C14.8457 20.0386 14.9405 20.2675 15.1093 20.4363C15.2782 20.6051 15.507 20.6999 15.7457 20.6999C15.9844 20.6999 16.2134 20.6051 16.3822 20.4363C16.5509 20.2675 16.6457 20.0386 16.6457 19.7999V15.0856C16.6526 14.9619 16.6325 14.8382 16.5869 14.723C16.5413 14.6078 16.4714 14.5038 16.3817 14.4183C16.2921 14.3327 16.185 14.2676 16.0678 14.2275C15.9507 14.1873 15.8261 14.173 15.7029 14.1856L15.7457 14.1684ZM12.9 16.0027C12.5771 16.0005 12.2629 15.8987 12 15.7113V21.9427C12 22.1814 12.0948 22.4104 12.2636 22.5791C12.4324 22.7479 12.6613 22.8427 12.9 22.8427C13.1387 22.8427 13.3676 22.7479 13.5364 22.5791C13.7052 22.4104 13.8 22.1814 13.8 21.9427V15.7199C13.5281 15.9224 13.1962 16.028 12.8572 16.0199L12.9 16.0027ZM5.22859 20.777V3.36843C5.22633 3.15623 5.14045 2.9535 4.98959 2.80424C4.83873 2.65499 4.63509 2.57128 4.42287 2.57129H4.2343C4.02209 2.57128 3.81844 2.65499 3.66759 2.80424C3.51673 2.9535 3.43084 3.15623 3.42859 3.36843V20.777C3.42859 20.9907 3.51348 21.1956 3.66458 21.3467C3.81567 21.4979 4.02062 21.5827 4.2343 21.5827H4.42287C4.63657 21.5827 4.8415 21.4979 4.9926 21.3467C5.14371 21.1956 5.22859 20.9907 5.22859 20.777ZM7.26859 19.5084H7.08002C6.86633 19.5084 6.66139 19.4236 6.51029 19.2725C6.35919 19.1213 6.2743 18.9164 6.2743 18.7027V5.44272C6.27657 5.23052 6.36244 5.02777 6.5133 4.87853C6.66416 4.72927 6.86781 4.64557 7.08002 4.64557H7.26859C7.4808 4.64557 7.68445 4.72927 7.83531 4.87853C7.98616 5.02777 8.07205 5.23052 8.0743 5.44272V18.7199C8.0743 18.9335 7.98941 19.1385 7.83831 19.2896C7.68722 19.4407 7.48227 19.5256 7.26859 19.5256V19.5084ZM10.1057 17.4684H9.90859C9.69722 17.4684 9.49442 17.3844 9.34493 17.2349C9.19545 17.0855 9.11145 16.8827 9.11145 16.6713V7.49986C9.11033 7.39446 9.13013 7.28988 9.16965 7.19217C9.20916 7.09447 9.2677 7.00558 9.34185 6.93065C9.41599 6.85572 9.50427 6.79623 9.60156 6.75564C9.69885 6.71504 9.80316 6.69414 9.90859 6.69415H10.1057C10.318 6.69641 10.5207 6.78229 10.6699 6.93314C10.8192 7.084 10.9029 7.28765 10.9029 7.49986V16.6713C10.9029 16.8827 10.8189 17.0855 10.6694 17.2349C10.5199 17.3844 10.3172 17.4684 10.1057 17.4684ZM12.9429 15.3684H12.7629C12.5506 15.3684 12.347 15.2848 12.1961 15.1355C12.0453 14.9862 11.9594 14.7835 11.9572 14.5713V9.63415C11.9501 9.52409 11.9657 9.41377 12.0031 9.30998C12.0404 9.20626 12.0987 9.1112 12.1742 9.03089C12.2497 8.95049 12.3409 8.88655 12.4422 8.84283C12.5434 8.7992 12.6526 8.77675 12.7629 8.777H12.9514C13.1651 8.777 13.3701 8.86186 13.5212 9.01297C13.6723 9.16409 13.7572 9.36903 13.7572 9.58272V14.5541C13.7583 14.6607 13.7383 14.7664 13.6983 14.8651C13.6583 14.9639 13.5992 15.0537 13.5242 15.1295C13.4493 15.2051 13.3601 15.2652 13.2617 15.3063C13.1634 15.3473 13.058 15.3684 12.9514 15.3684H12.9429ZM15.7886 13.5256H15.6C15.3863 13.5256 15.1814 13.4407 15.0303 13.2896C14.8792 13.1385 14.7943 12.9335 14.7943 12.7199V11.4427C14.7965 11.2305 14.8824 11.0278 15.0333 10.8785C15.1841 10.7292 15.3878 10.6456 15.6 10.6456H15.7886C16.0008 10.6456 16.2045 10.7292 16.3553 10.8785C16.5062 11.0278 16.5921 11.2305 16.5943 11.4427V12.7199C16.5943 12.9321 16.5106 13.1357 16.3613 13.2866C16.2121 13.4375 16.0094 13.5233 15.7972 13.5256H15.7886Z" fill="#DAC5A7"/>
</svg>