<svg xmlns="http://www.w3.org/2000/svg" width="80" height="20" viewBox="0 0 80 20" fill="none" id="svg2139786235_3214">
<path d="M1.96069 18.5502H19.0607V1.4502H1.96069V18.5502ZM15.7694 8.35486H12.156V4.74153H15.7694V8.35486ZM5.25136 4.74153H8.86671V11.6455H15.7694V15.2589H5.25136V4.74153ZM30.196 1.4502C28.505 1.4502 26.8519 1.95165 25.4459 2.89114C24.0398 3.83062 22.944 5.16595 22.2968 6.72826C21.6497 8.2906 21.4804 10.0097 21.8103 11.6682C22.1402 13.3267 22.9545 14.8502 24.1502 16.0459C25.346 17.2417 26.8694 18.056 28.528 18.3859C30.1866 18.7158 31.9056 18.5465 33.468 17.8994C35.0303 17.2523 36.3656 16.1564 37.3051 14.7503C38.2446 13.3443 38.746 11.6912 38.746 10.0002C38.7434 7.7334 37.8417 5.56022 36.2388 3.95736C34.636 2.3545 32.4628 1.45284 30.196 1.4502ZM30.196 15.2589C29.156 15.2589 28.1392 14.9505 27.2744 14.3726C26.4097 13.7948 25.7356 12.9735 25.3376 12.0126C24.9396 11.0517 24.8355 9.9944 25.0384 8.97426C25.2413 7.9542 25.7422 7.0172 26.4776 6.28176C27.213 5.54632 28.15 5.04548 29.1701 4.84258C30.1902 4.63967 31.2475 4.74381 32.2084 5.14182C33.1693 5.53984 33.9906 6.21386 34.5684 7.07866C35.1463 7.9434 35.4547 8.96013 35.4547 10.0002C35.4526 11.3943 34.8978 12.7306 33.9121 13.7163C32.9264 14.7021 31.59 15.2567 30.196 15.2589ZM69.342 1.4502C67.6507 1.45007 65.9978 1.9514 64.5917 2.89081C63.1856 3.83022 62.0896 5.1655 61.4424 6.7278C60.7952 8.29006 60.6257 10.0093 60.9556 11.6678C61.2854 13.3264 62.0996 14.8499 63.2954 16.0457C64.491 17.2415 66.0145 18.0559 67.6734 18.3859C69.3314 18.7158 71.0507 18.5465 72.6134 17.8995C74.1754 17.2523 75.5107 16.1565 76.45 14.7504C77.39 13.3443 77.8914 11.6913 77.8914 10.0002C77.8887 7.73353 76.9874 5.56044 75.3847 3.9576C73.782 2.35475 71.6087 1.45302 69.342 1.4502ZM69.342 15.2589C68.302 15.259 67.2854 14.9507 66.4203 14.3729C65.5554 13.7952 64.8813 12.9739 64.4832 12.0131C64.085 11.0522 63.9808 9.9948 64.1836 8.97466C64.3865 7.9546 64.8873 7.01753 65.6227 6.282C66.3581 5.54649 67.2954 5.04558 68.3154 4.84262C69.3354 4.63966 70.3927 4.74376 71.3534 5.14176C72.3147 5.53976 73.136 6.21377 73.714 7.0786C74.2914 7.9434 74.6 8.96013 74.6 10.0002C74.598 11.3941 74.0434 12.7303 73.0574 13.7161C72.072 14.7018 70.736 15.2566 69.342 15.2589ZM49.7687 1.4502C48.0776 1.4502 46.4246 1.95165 45.0186 2.89114C43.6125 3.83062 42.5166 5.16595 41.8695 6.72826C41.2224 8.2906 41.0531 10.0097 41.383 11.6682C41.7129 13.3267 42.5272 14.8502 43.7229 16.0459C44.9186 17.2417 46.4421 18.056 48.1006 18.3859C49.7592 18.7158 51.4783 18.5465 53.0406 17.8994C54.603 17.2523 55.9382 16.1564 56.8778 14.7503C57.8172 13.3443 58.3187 11.6912 58.3187 10.0002C58.316 7.7334 57.4144 5.56022 55.8115 3.95736C54.2086 2.3545 52.0355 1.45284 49.7687 1.4502ZM49.7687 15.2589C48.7996 15.2593 47.8494 14.9921 47.0226 14.4865C46.196 13.981 45.525 13.2569 45.0838 12.3941C44.6428 11.5313 44.4486 10.5634 44.5228 9.59726C44.5971 8.63106 44.9368 7.7042 45.5046 6.91893C46.0724 6.1337 46.8462 5.5206 47.7404 5.14734C48.6346 4.77406 49.6146 4.65514 50.5722 4.80369C51.5298 4.95224 52.4276 5.36248 53.1668 5.98914C53.9059 6.6158 54.4575 7.43453 54.7607 8.35486H49.7687V11.6455H54.7607C54.4134 12.6957 53.7444 13.61 52.8483 14.2585C51.9523 14.9071 50.8748 15.2571 49.7687 15.2589Z" fill="#DAC5A7"/>
</svg>