<svg xmlns="http://www.w3.org/2000/svg" xmlns:xlink="http://www.w3.org/1999/xlink" viewBox="0 0 58 22"><path d="M 7.228 21.008 C 9.804 21.008 11.904 19.608 12.94 17.564 L 12.94 20.728 L 14.592 20.728 L 14.592 13.896 C 14.592 9.92 11.456 6.84 7.452 6.84 C 3.392 6.84 0.34 10.032 0.34 13.896 C 0.34 17.816 3.308 21.008 7.228 21.008 Z M 7.452 19.356 C 4.456 19.356 2.076 16.892 2.076 13.924 C 2.076 10.956 4.456 8.492 7.452 8.492 C 10.476 8.492 12.856 10.956 12.856 13.924 C 12.856 16.892 10.476 19.356 7.452 19.356 Z M 21.802 20.728 L 21.802 12.44 C 21.802 10.116 23.09 8.632 25.162 8.632 C 25.946 8.632 26.702 8.828 27.374 9.22 L 27.374 7.456 C 26.674 7.12 25.862 6.952 25.022 6.952 C 21.886 6.952 20.066 9.192 20.066 12.356 L 20.066 20.728 Z M 31.709 3.872 C 32.409 3.872 32.941 3.312 32.941 2.584 C 32.941 1.856 32.409 1.296 31.709 1.296 C 31.009 1.296 30.449 1.856 30.449 2.584 C 30.449 3.312 31.009 3.872 31.709 3.872 Z M 30.841 7.148 L 30.841 20.728 L 32.577 20.728 L 32.577 7.148 Z M 40.714 20.728 L 40.714 14.652 L 42.702 14.652 C 42.842 15.072 43.066 15.492 43.43 15.856 L 48.274 20.728 L 50.542 20.728 L 44.634 14.764 C 44.354 14.484 44.186 14.204 44.186 13.924 C 44.186 13.616 44.354 13.364 44.634 13.084 L 50.57 7.148 L 48.386 7.148 L 43.486 12.048 C 43.15 12.384 42.898 12.748 42.758 13.112 L 40.714 13.112 L 40.714 0.876 L 38.978 0.876 L 38.978 20.728 Z M 56.158 20.952 C 56.858 20.952 57.418 20.392 57.418 19.664 C 57.418 18.964 56.858 18.432 56.158 18.432 C 55.458 18.432 54.898 18.964 54.898 19.664 C 54.898 20.392 55.458 20.952 56.158 20.952 Z" fill="rgb(218,197,167)"></path></svg>