<svg xmlns="http://www.w3.org/2000/svg" viewBox="0 0 256 256" focusable="false" color="var(--token-c5c4fdcb-9482-48bb-aedf-353188472aae, rgb(218, 197, 167))" style="user-select: none; width: 100%; height: 100%; display: inline-block; fill: var(--token-c5c4fdcb-9482-48bb-aedf-353188472aae, rgb(218, 197, 167)); color: var(--token-c5c4fdcb-9482-48bb-aedf-353188472aae, rgb(218, 197, 167)); flex-shrink: 0;"><g color="var(--token-c5c4fdcb-9482-48bb-aedf-353188472aae, rgb(218, 197, 167))" weight="light"><path d="M128,82a46,46,0,1,0,46,46A46.06,46.06,0,0,0,128,82Zm0,80a34,34,0,1,1,34-34A34,34,0,0,1,128,162ZM176,26H80A54.06,54.06,0,0,0,26,80v96a54.06,54.06,0,0,0,54,54h96a54.06,54.06,0,0,0,54-54V80A54.06,54.06,0,0,0,176,26Zm42,150a42,42,0,0,1-42,42H80a42,42,0,0,1-42-42V80A42,42,0,0,1,80,38h96a42,42,0,0,1,42,42ZM190,76a10,10,0,1,1-10-10A10,10,0,0,1,190,76Z"/></g></svg>